<svg xmlns="http://www.w3.org/2000/svg" viewBox="0 0 573.23 114.09"><defs><style>.cls-1{fill:#029b6c;}</style></defs><g id="Layer_2" data-name="Layer 2"><g id="Layer_1-2" data-name="Layer 1"><path class="cls-1" d="M0,6.9V26.46H31.46v85.12H54.55V26.46H86V6.9Z"/><path class="cls-1" d="M147.47,91V58.22q0-24.7-33.08-24.7Q81,33.52,79.24,59.1H98.79q1-6.48,4.41-9c2.27-1.72,5.79-2.58,10.59-2.58q13.68,0,13.67,10.15a6,6,0,0,1-3.74,6c-2.5,1.08-7.43,2.1-14.78,3.09-3.33.38-5.92.76-7.79,1.1s-4.31.86-7.35,1.54A23.42,23.42,0,0,0,86.66,72a45.16,45.16,0,0,0-5.43,4.11,14.06,14.06,0,0,0-4.12,6.18,26.56,26.56,0,0,0-1.25,8.53q0,10.73,7.21,16.83t19.85,6.1q15,0,24.54-9.55a32.3,32.3,0,0,0,1.48,7.34h21.18Q147.46,105.42,147.47,91Zm-20.15-7.8q0,7.94-5.07,12.43c-3.39,3-7.86,4.47-13.45,4.47-3.63,0-6.44-.9-8.46-2.71a9.5,9.5,0,0,1-3-7.42,9.59,9.59,0,0,1,3.23-7.65c1.86-1.47,5.89-2.69,12.06-3.67q11-1.77,14.7-4Z"/><path class="cls-1" d="M228.62,79.24a20.82,20.82,0,0,0-4.41-6.1A23.42,23.42,0,0,0,217.15,69a59.53,59.53,0,0,0-7.72-2.65c-2.11-.54-4.93-1.16-8.46-1.84-.48-.1-1.26-.24-2.35-.44q-9.1-1.92-12.64-3.53a5.79,5.79,0,0,1-3.53-5.73,6.25,6.25,0,0,1,3.08-5.52q3.1-2,8.68-2,6.61,0,10.07,2.35c2.31,1.56,3.75,4.26,4.35,8.09H228q-.43-12.51-9.56-18.38T195.1,33.52q-15.89,0-24.55,6t-8.68,17.2a27.29,27.29,0,0,0,.51,5.45,11.77,11.77,0,0,0,1.92,4.48c.92,1.32,1.78,2.48,2.57,3.46a10.85,10.85,0,0,0,3.6,2.71c1.61.84,2.91,1.53,3.89,2.07A23.07,23.07,0,0,0,179,76.59l4.55,1.26q1.41.36,4.93,1.1c2.35.49,3.87.83,4.55,1a11,11,0,0,0,1.18.3q9.12,2,12.5,3.81a6.24,6.24,0,0,1,3.38,6A7.9,7.9,0,0,1,206.34,97q-3.75,2.57-10.06,2.57-15.17,0-16.18-12.65H160.25q.15,13.68,10.14,20.29c6.68,4.41,15.14,6.62,25.44,6.62q16.17,0,25.43-6.9t9.27-18.83A19.4,19.4,0,0,0,228.62,79.24Z"/><path class="cls-1" d="M288,63.8l28.53-28.07H292L265.22,62.92V6.9H244.78V111.58h20.44V85.86l8.53-7.94,20.88,33.66h25.28Z"/><path d="M459.31,25.19a118.9,118.9,0,0,0-12.14,17.3c-.88,1.5-1.75,3-2.59,4.55A55.89,55.89,0,0,1,445.77,59q0,16.77-7.5,26.46t-20.59,9.71q-13.38-.15-21-9.71T389,59q0-16.31,7.72-26t20.67-9.7q9.93,0,16.74,5.57A181.63,181.63,0,0,1,448.63,14q-12.7-9.6-30.95-9.61-23.52,0-37.71,15.06T365.79,59.39Q365.79,84,380.05,99t37.49,15.08q23.07,0,37.27-15.08T469,59.39Q469,39.11,459.31,25.19Z"/><path d="M551.18,6.9V77L508.11,6.9H484.73V111.58h22.2V41.31l43.37,70.27h22.93V6.9Z"/><path class="cls-1" d="M428.1,77.11,397.35,49.88l13.89-11.56,4.15,4.62q3.86,4.31,7.72,8.62c.56.62.95.6,1.25-.07a73.88,73.88,0,0,1,9-14.53A177,177,0,0,1,455,13.56,111.41,111.41,0,0,1,467.81,2.91,33.63,33.63,0,0,1,472.46.39c.91-.42,2-.7,2.8.26A2.26,2.26,0,0,1,475,3.56,19.51,19.51,0,0,1,472,6.84c-10.71,8.66-18.87,19.4-25.8,31.17a220.29,220.29,0,0,0-17.7,38.17C428.37,76.45,428.26,76.71,428.1,77.11Z"/></g></g></svg>